<mxfile host="app.diagrams.net" modified="2021-08-09T13:11:13.444Z" agent="5.0 (Macintosh; Intel Mac OS X 10_15_7) AppleWebKit/537.36 (KHTML, like Gecko) Chrome/92.0.4515.131 Safari/537.36 Edg/92.0.902.67" etag="g8h24EUQA5MO0RfvZxnP" version="14.9.5" type="github">
  <diagram id="wxSSE-wPK-WL_dW7xost" name="Page-1">
    <mxGraphModel dx="807" dy="826" grid="1" gridSize="10" guides="1" tooltips="1" connect="1" arrows="1" fold="1" page="1" pageScale="1" pageWidth="827" pageHeight="1169" math="0" shadow="0">
      <root>
        <mxCell id="0" />
        <mxCell id="1" parent="0" />
        <mxCell id="M93wPizKfEXBVEMVKsdn-32" value="" style="whiteSpace=wrap;html=1;dashed=1;dashPattern=1 4;fillColor=#dae8fc;strokeColor=#6c8ebf;" vertex="1" parent="1">
          <mxGeometry x="17.5" y="410.12" width="752.5" height="79.88" as="geometry" />
        </mxCell>
        <mxCell id="M93wPizKfEXBVEMVKsdn-8" value="" style="edgeStyle=orthogonalEdgeStyle;rounded=0;orthogonalLoop=1;jettySize=auto;html=1;" edge="1" parent="1" source="M93wPizKfEXBVEMVKsdn-1" target="M93wPizKfEXBVEMVKsdn-7">
          <mxGeometry relative="1" as="geometry" />
        </mxCell>
        <mxCell id="M93wPizKfEXBVEMVKsdn-9" value="find" style="edgeLabel;html=1;align=center;verticalAlign=middle;resizable=0;points=[];" vertex="1" connectable="0" parent="M93wPizKfEXBVEMVKsdn-8">
          <mxGeometry x="0.0097" y="-3" relative="1" as="geometry">
            <mxPoint as="offset" />
          </mxGeometry>
        </mxCell>
        <mxCell id="M93wPizKfEXBVEMVKsdn-1" value="&lt;h1&gt;ServletWebServer&lt;font color=&quot;#660033&quot;&gt;ApplicationContext&lt;/font&gt;&lt;/h1&gt;" style="rounded=1;whiteSpace=wrap;html=1;" vertex="1" parent="1">
          <mxGeometry x="150" y="120" width="440" height="50" as="geometry" />
        </mxCell>
        <mxCell id="M93wPizKfEXBVEMVKsdn-5" value="" style="edgeStyle=orthogonalEdgeStyle;rounded=0;orthogonalLoop=1;jettySize=auto;html=1;" edge="1" parent="1" source="M93wPizKfEXBVEMVKsdn-2" target="M93wPizKfEXBVEMVKsdn-1">
          <mxGeometry relative="1" as="geometry" />
        </mxCell>
        <mxCell id="M93wPizKfEXBVEMVKsdn-6" value="自动配置" style="edgeLabel;html=1;align=center;verticalAlign=middle;resizable=0;points=[];" vertex="1" connectable="0" parent="M93wPizKfEXBVEMVKsdn-5">
          <mxGeometry x="-0.2131" y="1" relative="1" as="geometry">
            <mxPoint as="offset" />
          </mxGeometry>
        </mxCell>
        <mxCell id="M93wPizKfEXBVEMVKsdn-2" value="&lt;h1 style=&quot;color: rgb(0 , 0 , 0) ; font-family: &amp;#34;helvetica&amp;#34; ; font-style: normal ; letter-spacing: normal ; text-align: center ; text-indent: 0px ; text-transform: none ; word-spacing: 0px ; background-color: rgb(248 , 249 , 250)&quot;&gt;starter-web&lt;/h1&gt;" style="whiteSpace=wrap;html=1;rounded=1;" vertex="1" parent="1">
          <mxGeometry x="300" y="40" width="140" height="40" as="geometry" />
        </mxCell>
        <mxCell id="M93wPizKfEXBVEMVKsdn-13" value="" style="edgeStyle=orthogonalEdgeStyle;rounded=0;orthogonalLoop=1;jettySize=auto;html=1;" edge="1" parent="1" source="M93wPizKfEXBVEMVKsdn-7" target="M93wPizKfEXBVEMVKsdn-12">
          <mxGeometry relative="1" as="geometry">
            <mxPoint x="290" y="420" as="targetPoint" />
            <Array as="points">
              <mxPoint x="373" y="360" />
              <mxPoint x="250" y="360" />
            </Array>
          </mxGeometry>
        </mxCell>
        <mxCell id="M93wPizKfEXBVEMVKsdn-14" value="根据导入的jar包(starter)产生服务" style="edgeLabel;html=1;align=center;verticalAlign=middle;resizable=0;points=[];" vertex="1" connectable="0" parent="M93wPizKfEXBVEMVKsdn-13">
          <mxGeometry x="-0.0647" y="-3" relative="1" as="geometry">
            <mxPoint x="71" y="-17" as="offset" />
          </mxGeometry>
        </mxCell>
        <mxCell id="M93wPizKfEXBVEMVKsdn-15" value="starter-web默认导入tomcat" style="edgeLabel;html=1;align=center;verticalAlign=middle;resizable=0;points=[];" vertex="1" connectable="0" parent="M93wPizKfEXBVEMVKsdn-13">
          <mxGeometry x="0.5002" y="1" relative="1" as="geometry">
            <mxPoint x="39" y="26" as="offset" />
          </mxGeometry>
        </mxCell>
        <mxCell id="M93wPizKfEXBVEMVKsdn-20" style="edgeStyle=orthogonalEdgeStyle;rounded=0;orthogonalLoop=1;jettySize=auto;html=1;entryX=0.5;entryY=0;entryDx=0;entryDy=0;dashed=1;" edge="1" parent="1" source="M93wPizKfEXBVEMVKsdn-7" target="M93wPizKfEXBVEMVKsdn-17">
          <mxGeometry relative="1" as="geometry">
            <Array as="points">
              <mxPoint x="373" y="360" />
              <mxPoint x="90" y="360" />
            </Array>
          </mxGeometry>
        </mxCell>
        <mxCell id="M93wPizKfEXBVEMVKsdn-21" style="edgeStyle=orthogonalEdgeStyle;rounded=0;orthogonalLoop=1;jettySize=auto;html=1;dashed=1;" edge="1" parent="1" source="M93wPizKfEXBVEMVKsdn-7" target="M93wPizKfEXBVEMVKsdn-18">
          <mxGeometry relative="1" as="geometry">
            <Array as="points">
              <mxPoint x="373" y="360" />
              <mxPoint x="450" y="360" />
            </Array>
          </mxGeometry>
        </mxCell>
        <mxCell id="M93wPizKfEXBVEMVKsdn-42" style="edgeStyle=orthogonalEdgeStyle;rounded=0;orthogonalLoop=1;jettySize=auto;html=1;entryX=0.5;entryY=0;entryDx=0;entryDy=0;dashed=1;" edge="1" parent="1" source="M93wPizKfEXBVEMVKsdn-7" target="M93wPizKfEXBVEMVKsdn-41">
          <mxGeometry relative="1" as="geometry">
            <Array as="points">
              <mxPoint x="373" y="360" />
              <mxPoint x="650" y="360" />
            </Array>
          </mxGeometry>
        </mxCell>
        <mxCell id="M93wPizKfEXBVEMVKsdn-7" value="&lt;h1&gt;ServletWebServer&lt;font color=&quot;#660033&quot;&gt;Factory&lt;/font&gt;&lt;/h1&gt;&lt;h2&gt;&lt;font color=&quot;#4d4d4d&quot;&gt;web服务器工厂&lt;/font&gt;&lt;/h2&gt;&lt;h3&gt;&lt;font color=&quot;#808080&quot;&gt;AutoConfig默认自动配置三个Tomcat、Jetty、Undertow&lt;/font&gt;&lt;/h3&gt;" style="whiteSpace=wrap;html=1;rounded=1;" vertex="1" parent="1">
          <mxGeometry x="180" y="210" width="385" height="110" as="geometry" />
        </mxCell>
        <mxCell id="M93wPizKfEXBVEMVKsdn-12" value="&lt;h3&gt;TomcatServletWebServer&lt;/h3&gt;" style="whiteSpace=wrap;html=1;rounded=1;" vertex="1" parent="1">
          <mxGeometry x="170" y="420.12" width="180" height="40" as="geometry" />
        </mxCell>
        <mxCell id="M93wPizKfEXBVEMVKsdn-17" value="&lt;h3&gt;Jetty..Server&lt;/h3&gt;" style="rounded=1;whiteSpace=wrap;html=1;" vertex="1" parent="1">
          <mxGeometry x="30" y="420.12" width="120" height="40" as="geometry" />
        </mxCell>
        <mxCell id="M93wPizKfEXBVEMVKsdn-18" value="&lt;h3&gt;Undertow..Server&lt;/h3&gt;" style="rounded=1;whiteSpace=wrap;html=1;" vertex="1" parent="1">
          <mxGeometry x="370" y="420.12" width="160" height="40" as="geometry" />
        </mxCell>
        <mxCell id="M93wPizKfEXBVEMVKsdn-23" value="spring-boot-starter-jetty&lt;br&gt;spring-boot-starter-tomcat&lt;br&gt;spring-boot-starter-undertow" style="text;html=1;align=center;verticalAlign=middle;resizable=0;points=[];autosize=1;strokeColor=none;" vertex="1" parent="1">
          <mxGeometry x="115" y="35" width="170" height="50" as="geometry" />
        </mxCell>
        <mxCell id="M93wPizKfEXBVEMVKsdn-38" value="同时只能存在一种web服务" style="text;html=1;align=center;verticalAlign=middle;resizable=0;points=[];autosize=1;strokeColor=none;" vertex="1" parent="1">
          <mxGeometry x="210" y="460.12" width="160" height="20" as="geometry" />
        </mxCell>
        <mxCell id="M93wPizKfEXBVEMVKsdn-41" value="&lt;h2 style=&quot;font-size: 11px&quot;&gt;自定义ServletWebServerFactory&lt;/h2&gt;" style="rounded=1;whiteSpace=wrap;html=1;fontSize=11;verticalAlign=middle;" vertex="1" parent="1">
          <mxGeometry x="560" y="420.12" width="180" height="49.76" as="geometry" />
        </mxCell>
        <mxCell id="M93wPizKfEXBVEMVKsdn-43" value="ServletWebServerFactoryCustomizer定制化器" style="text;html=1;align=center;verticalAlign=middle;resizable=0;points=[];autosize=1;strokeColor=none;fontSize=11;" vertex="1" parent="1">
          <mxGeometry x="530" y="380" width="260" height="20" as="geometry" />
        </mxCell>
      </root>
    </mxGraphModel>
  </diagram>
</mxfile>
